<svg width="119" height="38" viewBox="0 0 119 38" fill="none" xmlns="http://www.w3.org/2000/svg">
<mask id="path-1-inside-1_33_39" fill="white">
<path fill-rule="evenodd" clip-rule="evenodd" d="M5 0C2.23858 0 0 2.23857 0 5V21.9167C0 24.6781 2.23858 26.9167 5 26.9167H54.3619L59.5001 38L64.6383 26.9167H114C116.761 26.9167 119 24.6781 119 21.9167V5C119 2.23858 116.761 0 114 0H5Z"/>
</mask>
<path fill-rule="evenodd" clip-rule="evenodd" d="M5 0C2.23858 0 0 2.23857 0 5V21.9167C0 24.6781 2.23858 26.9167 5 26.9167H54.3619L59.5001 38L64.6383 26.9167H114C116.761 26.9167 119 24.6781 119 21.9167V5C119 2.23858 116.761 0 114 0H5Z" fill="#F7F7F7"/>
<path d="M54.3619 26.9167L55.2692 26.4961L55.0006 25.9167H54.3619V26.9167ZM59.5001 38L58.5929 38.4206L59.5001 40.3776L60.4074 38.4206L59.5001 38ZM64.6383 26.9167V25.9167H63.9996L63.731 26.4961L64.6383 26.9167ZM1 5C1 2.79086 2.79086 1 5 1V-1C1.68629 -1 -1 1.68629 -1 5H1ZM1 21.9167V5H-1V21.9167H1ZM5 25.9167C2.79086 25.9167 1 24.1258 1 21.9167H-1C-1 25.2304 1.68629 27.9167 5 27.9167V25.9167ZM54.3619 25.9167H5V27.9167H54.3619V25.9167ZM53.4547 27.3373L58.5929 38.4206L60.4074 37.5794L55.2692 26.4961L53.4547 27.3373ZM60.4074 38.4206L65.5455 27.3373L63.731 26.4961L58.5929 37.5794L60.4074 38.4206ZM114 25.9167H64.6383V27.9167H114V25.9167ZM118 21.9167C118 24.1258 116.209 25.9167 114 25.9167V27.9167C117.314 27.9167 120 25.2304 120 21.9167H118ZM118 5V21.9167H120V5H118ZM114 1C116.209 1 118 2.79086 118 5H120C120 1.68629 117.314 -1 114 -1V1ZM5 1H114V-1H5V1Z" fill="#CCCCCC" mask="url(#path-1-inside-1_33_39)"/>
</svg>
